<?xml version="1.0" encoding="UTF-8" standalone="no"?>
<!-- Created with Inkscape (http://www.inkscape.org/) -->

<svg
   xmlns:dc="http://purl.org/dc/elements/1.1/"
   xmlns:cc="http://creativecommons.org/ns#"
   xmlns:rdf="http://www.w3.org/1999/02/22-rdf-syntax-ns#"
   xmlns:svg="http://www.w3.org/2000/svg"
   xmlns="http://www.w3.org/2000/svg"
   xmlns:sodipodi="http://sodipodi.sourceforge.net/DTD/sodipodi-0.dtd"
   xmlns:inkscape="http://www.inkscape.org/namespaces/inkscape"
   width="128"
   height="128"
   id="svg2"
   version="1.1"
   inkscape:version="0.48.5 r10040"
   sodipodi:docname="kick_effect.svg"
   inkscape:export-filename="/home/toni/git/xball/android/assets/sprite/kick_effect.png"
   inkscape:export-xdpi="90"
   inkscape:export-ydpi="90">
  <defs
     id="defs4" />
  <sodipodi:namedview
     id="base"
     pagecolor="#ffffff"
     bordercolor="#666666"
     borderopacity="1.0"
     inkscape:pageopacity="0.0"
     inkscape:pageshadow="2"
     inkscape:zoom="3.959798"
     inkscape:cx="-4.6773861"
     inkscape:cy="69.818594"
     inkscape:document-units="px"
     inkscape:current-layer="layer3"
     showgrid="false"
     inkscape:window-width="1440"
     inkscape:window-height="828"
     inkscape:window-x="0"
     inkscape:window-y="25"
     inkscape:window-maximized="1" />
  <metadata
     id="metadata7">
    <rdf:RDF>
      <cc:Work
         rdf:about="">
        <dc:format>image/svg+xml</dc:format>
        <dc:type
           rdf:resource="http://purl.org/dc/dcmitype/StillImage" />
        <dc:title></dc:title>
      </cc:Work>
    </rdf:RDF>
  </metadata>
  <g
     inkscape:label="Layer 1"
     inkscape:groupmode="layer"
     id="layer1"
     transform="translate(0,-924.36218)">
    <path
       style="fill:#b5b5b5;stroke:none;stroke-width:1px;stroke-linecap:butt;stroke-linejoin:miter;stroke-opacity:1;fill-opacity:0.38565021999999999"
       d="M 2.0203051,2.4885463 53.538085,125.97969 l 5.050763,-8.08122 8.333758,7.57615 4.293148,-7.82868 4.545687,7.3236 L 125.76399,2.4885463 98.237335,34.56089 101.26779,3.751237 82.579971,31.025356 65.154839,3.4986989 57.073619,32.035508 37.123106,5.5190039 32.829958,31.78297 z"
       id="path2987"
       inkscape:connector-curvature="0"
       transform="translate(0,924.36218)" />
  </g>
  <g
     inkscape:groupmode="layer"
     id="layer2"
     inkscape:label="Layer2">
    <path
       inkscape:connector-curvature="0"
       id="path2989"
       d="m 17.097881,24.384652 39.650229,90.450998 3.887277,-5.91908 6.414007,5.54915 3.304185,-5.73411 3.49855,5.36416 L 112.33617,24.384652 91.150514,47.876018 93.48288,25.309509 79.099954,45.286419 65.688847,25.124537 59.469203,46.026304 44.114458,26.604308 40.810273,45.841332 z"
       style="fill:#888888;stroke:none;stroke-width:0.75081520999999984px;stroke-linecap:butt;stroke-linejoin:miter;stroke-opacity:1;fill-opacity:0.58744395" />
  </g>
  <g
     inkscape:groupmode="layer"
     id="layer3"
     inkscape:label="Layer3">
    <path
       style="fill:#575757;stroke:none;stroke-width:0.56545805999999998px;stroke-linecap:butt;stroke-linejoin:miter;stroke-opacity:1;fill-opacity:0.7443946"
       d="m 27.124042,40.976803 30.9865,65.647957 3.037892,-4.29598 5.012521,4.02749 2.582208,-4.16173 2.734103,3.89323 L 101.55239,40.976803 84.995887,58.026479 86.818622,41.648051 75.578421,56.146988 65.097692,41.513801 60.237065,56.683985 48.237391,42.587796 45.655184,56.549735 z"
       id="path2991"
       inkscape:connector-curvature="0" />
  </g>
</svg>
